<svg width="16" height="16" viewBox="0 0 16 16" fill="none" xmlns="http://www.w3.org/2000/svg">
<path d="M7.16706 10.1169V11.3302H2.1084V4.79688H7.04573V6.01021H3.61107V7.42888H6.6444V8.60488H3.61107V10.1169H7.16706Z" fill="#FF6B9B"/>
<path d="M12.5328 11.3302L11.2728 9.51021H9.88212V11.3302H8.37012V4.79688H11.1981C11.7768 4.79688 12.2777 4.89332 12.7008 5.08621C13.1301 5.2791 13.4599 5.55288 13.6901 5.90754C13.9203 6.26221 14.0355 6.68221 14.0355 7.16754C14.0355 7.65288 13.9172 8.07288 13.6808 8.42754C13.4506 8.77599 13.1208 9.04354 12.6915 9.23021L14.1568 11.3302H12.5328ZM12.5048 7.16754C12.5048 6.80043 12.3866 6.52043 12.1501 6.32754C11.9137 6.12843 11.5683 6.02888 11.1141 6.02888H9.88212V8.30621H11.1141C11.5683 8.30621 11.9137 8.20665 12.1501 8.00754C12.3866 7.80843 12.5048 7.52843 12.5048 7.16754Z" fill="#FF6B9B"/>
<path fill-rule="evenodd" clip-rule="evenodd" d="M12.667 1.33073H3.33366C2.22909 1.33073 1.33366 2.22616 1.33366 3.33073V12.6641C1.33366 13.7686 2.22909 14.6641 3.33366 14.6641H12.667C13.7716 14.6641 14.667 13.7686 14.667 12.6641V3.33073C14.667 2.22616 13.7716 1.33073 12.667 1.33073ZM3.33366 0.664062C1.8609 0.664062 0.666992 1.85797 0.666992 3.33073V12.6641C0.666992 14.1368 1.8609 15.3307 3.33366 15.3307H12.667C14.1398 15.3307 15.3337 14.1368 15.3337 12.6641V3.33073C15.3337 1.85797 14.1398 0.664062 12.667 0.664062H3.33366Z" fill="#FF6B9B"/>
</svg>
