<svg width="20" height="20" viewBox="0 0 20 20" fill="none" xmlns="http://www.w3.org/2000/svg">
<path d="M14.375 7.49861C14.375 8.36391 14.1184 9.20977 13.6377 9.92924C13.1569 10.6487 12.4737 11.2095 11.6742 11.5406C10.8748 11.8717 9.99514 11.9584 9.14648 11.7896C8.29781 11.6207 7.51826 11.2041 6.90641 10.5922C6.29455 9.98035 5.87787 9.2008 5.70906 8.35214C5.54025 7.50347 5.62689 6.6238 5.95803 5.82437C6.28916 5.02495 6.84991 4.34167 7.56938 3.86093C8.28884 3.3802 9.13471 3.12361 10 3.12361C11.1603 3.12361 12.2731 3.58455 13.0936 4.40502C13.9141 5.22549 14.375 6.33829 14.375 7.49861ZM16.875 7.49861C16.8751 8.51132 16.651 9.51149 16.2188 10.4273C15.7865 11.3431 15.1569 12.1519 14.375 12.7955V18.7486C14.375 18.9144 14.3091 19.0734 14.1919 19.1906C14.0747 19.3078 13.9158 19.3736 13.75 19.3736C13.653 19.3716 13.5575 19.3503 13.4687 19.3111L10 17.5689L6.53125 19.3111C6.43547 19.3584 6.32917 19.3804 6.22249 19.3749C6.11581 19.3694 6.01231 19.3367 5.92187 19.2799C5.8307 19.2245 5.75543 19.1465 5.70341 19.0534C5.65138 18.9603 5.62436 18.8553 5.625 18.7486V12.7955C4.7312 12.0581 4.03825 11.1069 3.61054 10.03C3.18283 8.95313 3.03422 7.78564 3.17853 6.63597C3.32283 5.48629 3.75537 4.39175 4.43595 3.454C5.11654 2.51625 6.02309 1.76573 7.0714 1.27215C8.11971 0.77857 9.27576 0.557951 10.4322 0.630785C11.5886 0.703619 12.7078 1.06754 13.6859 1.68875C14.664 2.30996 15.4692 3.16829 16.0267 4.18402C16.5843 5.19975 16.8761 6.33992 16.875 7.49861ZM15.625 7.49861C15.625 6.38609 15.2951 5.29856 14.677 4.37353C14.0589 3.4485 13.1804 2.72753 12.1526 2.30179C11.1248 1.87605 9.99376 1.76465 8.90262 1.9817C7.81147 2.19874 6.80919 2.73447 6.02252 3.52114C5.23585 4.30781 4.70012 5.31009 4.48308 6.40123C4.26604 7.49237 4.37743 8.62337 4.80318 9.65121C5.22892 10.679 5.94989 11.5576 6.87492 12.1756C7.79994 12.7937 8.88748 13.1236 10 13.1236C11.4912 13.1216 12.9207 12.5283 13.9752 11.4738C15.0296 10.4194 15.6229 8.98982 15.625 7.49861Z" fill="#368AC8"/>
<path d="M14.375 7.49861C14.375 8.36391 14.1184 9.20977 13.6377 9.92924C13.1569 10.6487 12.4737 11.2095 11.6742 11.5406C10.8748 11.8717 9.99514 11.9584 9.14648 11.7896C8.29781 11.6207 7.51826 11.2041 6.90641 10.5922C6.29455 9.98035 5.87787 9.2008 5.70906 8.35214C5.54025 7.50347 5.62689 6.6238 5.95803 5.82437C6.28916 5.02495 6.84991 4.34167 7.56938 3.86093C8.28884 3.3802 9.13471 3.12361 10 3.12361C11.1603 3.12361 12.2731 3.58455 13.0936 4.40502C13.9141 5.22549 14.375 6.33829 14.375 7.49861ZM16.875 7.49861C16.8751 8.51132 16.651 9.51149 16.2188 10.4273C15.7865 11.3431 15.1569 12.1519 14.375 12.7955V18.7486C14.375 18.9144 14.3091 19.0734 14.1919 19.1906C14.0747 19.3078 13.9158 19.3736 13.75 19.3736C13.653 19.3716 13.5575 19.3503 13.4687 19.3111L10 17.5689L6.53125 19.3111C6.43547 19.3584 6.32917 19.3804 6.22249 19.3749C6.11581 19.3694 6.01231 19.3367 5.92187 19.2799C5.8307 19.2245 5.75543 19.1465 5.70341 19.0534C5.65138 18.9603 5.62436 18.8553 5.625 18.7486V12.7955C4.7312 12.0581 4.03825 11.1069 3.61054 10.03C3.18283 8.95313 3.03422 7.78564 3.17853 6.63597C3.32283 5.48629 3.75537 4.39175 4.43595 3.454C5.11654 2.51625 6.02309 1.76573 7.0714 1.27215C8.11971 0.77857 9.27576 0.557951 10.4322 0.630785C11.5886 0.703619 12.7078 1.06754 13.6859 1.68875C14.664 2.30996 15.4692 3.16829 16.0267 4.18402C16.5843 5.19975 16.8761 6.33992 16.875 7.49861ZM15.625 7.49861C15.625 6.38609 15.2951 5.29856 14.677 4.37353C14.0589 3.4485 13.1804 2.72753 12.1526 2.30179C11.1248 1.87605 9.99376 1.76465 8.90262 1.9817C7.81147 2.19874 6.80919 2.73447 6.02252 3.52114C5.23585 4.30781 4.70012 5.31009 4.48308 6.40123C4.26604 7.49237 4.37743 8.62337 4.80318 9.65121C5.22892 10.679 5.94989 11.5576 6.87492 12.1756C7.79994 12.7937 8.88748 13.1236 10 13.1236C11.4912 13.1216 12.9207 12.5283 13.9752 11.4738C15.0296 10.4194 15.6229 8.98982 15.625 7.49861Z" fill="url(#paint0_linear_20767_68629)"/>
<defs>
<linearGradient id="paint0_linear_20767_68629" x1="16.875" y1="19.3757" x2="1.04893" y2="17.4204" gradientUnits="userSpaceOnUse">
<stop stop-color="#70ADD9"/>
<stop offset="1" stop-color="#368AC8"/>
</linearGradient>
</defs>
</svg>
