<svg width="235" height="50" viewBox="0 0 235 50" fill="none" xmlns="http://www.w3.org/2000/svg">
<path fill-rule="evenodd" clip-rule="evenodd" d="M23.2225 0.0232738C19.6846 0.390899 16.9526 1.14591 14.0506 2.55785C7.50706 5.74159 2.64583 11.5885 0.794581 18.502C0.130292 20.9825 -0.00300643 22.0604 5.0869e-05 24.9262C0.00310816 27.7443 0.225312 29.5057 0.855849 31.709C2.84969 38.6763 7.67031 44.405 14.1729 47.5347C17.5203 49.1457 20.5114 49.864 24.3843 49.9867C33.2359 50.2673 41.3671 46.0991 46.2799 38.7629C48.912 34.8325 50.4223 29.9014 50.4304 25.2119C50.447 15.5415 44.9763 6.76189 36.3151 2.5593C32.8288 0.867769 29.6366 0.100752 25.7295 0.0161202C24.6197 -0.00788701 23.4916 -0.00473455 23.2225 0.0232738ZM28.4199 3.6543C31.7047 4.10219 34.9148 5.37893 37.7753 7.37505C39.311 8.44688 41.8896 11.0047 43.0013 12.5591C44.0196 13.983 45.2725 16.4482 45.8357 18.1363C48.3141 25.5644 46.7052 33.4468 41.511 39.3241C35.1391 46.5341 24.5247 48.6653 15.746 44.4973C6.94451 40.3185 1.99732 30.705 3.72604 21.1405C5.27768 12.556 12.183 5.57766 20.8612 3.82429C23.2235 3.34705 25.7496 3.29019 28.4199 3.6543ZM131.634 24.5019V45.0535H136.954H142.274V43.5847V42.116L143.352 43.13C145.744 45.3794 148.595 46.3366 151.996 46.0318C154.987 45.7639 157.337 44.6872 159.404 42.6377C162.2 39.8649 163.675 35.7863 163.674 30.8284C163.674 27.7982 163.198 25.3306 162.168 23.01C160.407 19.0424 157.376 16.5646 153.219 15.6935C152.014 15.4411 149.244 15.508 148.089 15.8172C146.167 16.3315 143.984 17.6578 142.85 18.9996L142.401 19.5307L142.398 11.7405L142.396 3.95027H137.015H131.634V24.5019ZM60.705 10.3752V15.2239L66.2998 15.2555L71.8947 15.287L71.9257 30.1702L71.9568 45.0535H77.9486H83.9404V30.1399V15.2264H89.5658H95.1913V10.3764V5.52649H77.9481H60.705V10.3752ZM23.4655 6.9571C21.0401 7.78862 19.4892 9.90332 19.4941 12.3722C19.4981 14.3958 20.7147 16.3954 22.4983 17.3098L23.2828 17.712L23.2832 25.67L23.2837 33.628L21.9443 34.8742C20.3845 36.3253 20.3928 36.3193 19.9432 36.3218C19.3906 36.3247 19.1618 36.1506 17.2608 34.2811L15.457 32.5073L15.4638 29.7777L15.4708 27.0481L16.3297 26.6417C19.7315 25.0318 20.5556 20.561 17.9609 17.7929C15.999 15.6998 12.9746 15.348 10.5788 16.9341C9.65548 17.5455 9.21315 18.065 8.63581 19.2165C8.2232 20.0394 8.18162 20.2176 8.14028 21.3384C8.10274 22.355 8.14004 22.694 8.36126 23.3435C8.87831 24.8616 9.83586 25.9548 11.2685 26.6621L12.0328 27.0395V30.4073V33.7749L15.6523 37.3227C17.6431 39.2739 19.3903 40.9152 19.5351 40.9701C20.1397 41.199 20.5925 40.8775 22.9129 38.5725L25.1714 36.3289L27.4988 38.6149C30.0215 41.0925 30.2488 41.2389 31.0173 40.8773C31.2414 40.7718 32.9775 39.1426 34.8752 37.2568L38.3256 33.8282V31.4021V28.9762L38.7491 28.8244C40.09 28.3436 41.433 26.9683 41.9636 25.5325C42.9256 22.9294 41.772 19.9354 39.3048 18.6316C35.8057 16.7826 31.6215 18.8403 30.9739 22.7285C30.5291 25.3985 32.1987 28.1158 34.8097 28.971C34.9998 29.0333 35.0237 29.2285 35.0237 30.7198V32.3988L33.0213 34.3612C31.0608 36.2825 31.008 36.3236 30.4951 36.3236C29.9905 36.3236 29.9179 36.2713 28.523 34.9053L27.0747 33.4871V25.5936V17.7001L27.4997 17.5477C28.2273 17.2869 29.3573 16.3483 29.8823 15.5689C30.6266 14.464 30.9116 13.4019 30.838 12.0082C30.7866 11.0329 30.7193 10.7558 30.348 9.99049C29.3098 7.85082 27.5183 6.73401 25.1377 6.74298C24.4596 6.74553 23.858 6.82252 23.4655 6.9571ZM26.1343 9.72047C26.8903 9.97582 27.7232 10.8825 27.9223 11.6668C28.1793 12.678 27.8316 13.7705 27.0313 14.4672C26.46 14.9645 25.8583 15.1415 24.9368 15.0833C23.5128 14.9934 22.5403 14.0292 22.4496 12.6173C22.3909 11.7041 22.5695 11.1072 23.0702 10.5417C23.8709 9.63754 24.9961 9.33599 26.1343 9.72047ZM107.953 15.5976C105.884 15.7964 103.065 16.6538 101.345 17.6073C96.6803 20.1938 93.9721 24.9967 93.9691 30.6887C93.9638 40.4238 101.254 46.7588 111.621 46.0288C116.132 45.7112 119.738 44.1699 122.358 41.4404C125.12 38.5629 126.413 35.172 126.413 30.8068C126.413 27.1846 125.451 24.0547 123.562 21.5313C120.285 17.1537 114.529 14.9658 107.953 15.5976ZM178.998 15.5975C175.8 16.0102 172.831 17.7415 170.896 20.3232C168.26 23.8386 167.183 29.0894 168.036 34.2624C169.082 40.5975 172.923 44.8873 178.472 45.9181C179.731 46.152 182.02 46.095 183.267 45.7985C185.517 45.2636 187.439 44.0686 188.928 42.2775L189.539 41.5421L189.601 43.2675L189.662 44.9928H194.981H200.301L200.332 30.7765L200.363 16.5601H194.982H189.601L189.597 18.3485L189.593 20.1369L189.326 19.7732C189.179 19.5731 188.702 19.0385 188.265 18.5851C185.949 16.1825 182.666 15.1242 178.998 15.5975ZM14.88 19.0273C16.6429 19.7597 17.1575 22.1447 15.848 23.5127C14.7458 24.6641 12.8489 24.6641 11.7716 23.5127C11.2164 22.9192 11.0023 22.3803 11.0083 21.5919C11.0171 20.4558 11.6419 19.4876 12.6443 19.0571C13.1799 18.8271 14.3602 18.8113 14.88 19.0273ZM37.7141 21.0565C38.4537 21.3889 38.7919 21.7182 39.1355 22.4406C40.0224 24.3053 38.6359 26.3812 36.5037 26.3812C35.0363 26.3812 33.8062 25.1094 33.8062 23.5925C33.8062 22.7401 34.1223 22.0483 34.7507 21.5251C35.6457 20.7803 36.7212 20.6102 37.7141 21.0565ZM111.358 24.8173C113.425 25.2433 114.984 26.756 115.56 28.8951C115.808 29.8178 115.806 31.8054 115.555 32.7377C114.624 36.1943 110.958 37.8398 107.705 36.2605C105.78 35.3259 104.698 33.3638 104.698 30.8068C104.698 28.8618 105.236 27.459 106.442 26.2546C107.684 25.0141 109.598 24.4545 111.358 24.8173ZM185.081 24.806C187.243 25.2125 188.925 26.9368 189.42 29.2564C190.209 32.9451 188.178 36.2832 184.831 36.7997C182.171 37.2101 179.73 35.6965 178.814 33.0684C178.42 31.9378 178.423 29.5864 178.819 28.5128C179.207 27.4629 179.587 26.8812 180.355 26.1608C181.603 24.9909 183.37 24.4843 185.081 24.806ZM149.788 25.269C150.855 25.7643 151.89 26.7855 152.39 27.8362C153.561 30.2987 153.143 33.3521 151.385 35.1659C150.656 35.9176 149.819 36.3716 148.664 36.6402C146.895 37.0518 144.754 36.3922 143.524 35.0568C140.883 32.1894 141.646 27.0721 144.961 25.4127C145.959 24.9133 146.501 24.8086 147.855 24.8537C148.804 24.8854 149.096 24.9483 149.788 25.269ZM214.805 35.9295C212.83 41.1811 211.187 45.5461 211.156 45.6294C211.112 45.7443 211.392 45.7809 212.317 45.7809H213.537L213.939 44.72C214.159 44.1366 214.502 43.2357 214.7 42.7181L215.06 41.7771L220.091 41.8087L225.123 41.8404L225.855 43.8107L226.586 45.7809H227.782C228.44 45.7809 228.978 45.7478 228.978 45.7075C228.978 45.667 227.403 41.4521 225.478 36.341C223.553 31.2299 221.924 26.898 221.859 26.7146L221.739 26.3812H220.068H218.397L214.805 35.9295ZM232.525 36.0811V45.7809H233.687H234.848V36.0811V26.3812H233.687H232.525V36.0811ZM222.303 34.1281C223.486 37.2219 224.454 39.8272 224.454 39.9177C224.454 40.0533 223.677 40.0823 220.051 40.0823C217.63 40.0823 215.649 40.0398 215.649 39.9881C215.649 39.9363 216.613 37.3855 217.791 34.3197C218.969 31.2539 219.961 28.6695 219.995 28.5767C220.029 28.4838 220.079 28.4292 220.105 28.4554C220.131 28.4816 221.121 31.0344 222.303 34.1281ZM206.467 43.6933C205.964 44.1388 205.856 44.9278 206.22 45.502C206.684 46.2339 207.996 46.277 208.55 45.5786C208.998 45.0144 208.792 43.7973 208.196 43.4809C208.066 43.4121 207.71 43.356 207.404 43.356C206.968 43.356 206.765 43.4291 206.467 43.6933Z" fill="white"/>
</svg>
