<svg width="32" height="19" viewBox="0 0 32 19" fill="none" xmlns="http://www.w3.org/2000/svg">
<path d="M1.85461 9.18078C1.94126 7.8811 2.85669 6.78583 4.12036 6.46991L7.36394 5.65902C7.78303 5.55424 8.21981 5.54122 8.64441 5.62083L15.4909 6.90454C15.8278 6.96771 16.1731 6.97268 16.5116 6.91921L24.6241 5.63831C25.1958 5.54803 25.7814 5.62508 26.3104 5.86016L28.5247 6.84429C29.4458 7.25367 30.0997 8.09826 30.2654 9.09253L30.7462 11.9772C30.9055 12.9328 30.5934 13.9066 29.9083 14.5917L28.3787 16.1213C27.8161 16.6839 27.053 17 26.2574 17H23.4317C22.2553 17 21.1875 16.3124 20.7006 15.2414L19.7994 13.2586C19.3125 12.1876 18.2447 11.5 17.0683 11.5H16H15.2809C14.1831 11.5 13.1729 12.0997 12.6472 13.0634L11.3528 15.4366C10.8271 16.4003 9.81693 17 8.7191 17H6.36039C5.79813 17 5.24719 16.842 4.77039 16.544L3.02281 15.4518C2.08518 14.8657 1.5459 13.8115 1.61945 12.7082L1.85461 9.18078Z" fill="#76BDFF"/>
<path d="M24.873 8.32812C23.193 8.32812 21.8345 9.69318 21.8345 11.3667C21.8345 11.767 22.1626 12.0951 22.5629 12.0951C22.9633 12.0951 23.2914 11.767 23.2914 11.3667C23.2914 10.4938 24.0067 9.77849 24.8796 9.77849C25.2799 9.77849 25.6081 9.45036 25.6081 9.05003C25.6015 8.6497 25.2734 8.32812 24.873 8.32812Z" fill="white"/>
<path d="M29.8277 6.23461C29.6505 6.06398 29.4602 5.89991 29.2633 5.7424L26.5726 3.45857C25.5357 2.72354 24.3019 2.25759 22.9631 2.16571L23.1074 2.31009L21.4733 0.6694H21.4602C21.0074 0.255947 20.397 0 19.7342 0C18.5923 0 17.6275 0.741591 17.2994 1.77194C16.9713 1.56193 16.5906 1.43724 16.1772 1.41099C16.1115 1.40443 16.0394 1.40443 15.9737 1.40443C15.5078 1.40443 15.0746 1.54225 14.7071 1.77194C14.3724 0.748153 13.4077 0.00656265 12.2723 0.00656265C11.6095 0.00656265 11.0057 0.255947 10.5463 0.675963H10.5332L8.89909 2.31665L9.04347 2.17227C7.70467 2.26415 6.46431 2.73667 5.43396 3.46513L2.74323 5.74897C2.54635 5.89991 2.35603 6.06398 2.17883 6.24117C0.833469 7.5406 0 9.35848 0 11.3732C0 15.3109 3.20262 18.5135 7.14027 18.5135C10.776 18.5135 13.7883 15.7768 14.2215 12.2527C14.7465 12.5545 15.3568 12.7252 16 12.7252C16.6497 12.7252 17.2535 12.5545 17.7785 12.2527C18.2182 15.7703 21.2239 18.507 24.8597 18.507C28.7973 18.507 32 15.3043 32 11.3667C32.0065 9.35192 31.1731 7.53404 29.8277 6.23461ZM7.14027 16.2428C4.44954 16.2428 2.27071 14.064 2.27071 11.3732C2.27071 8.68252 4.44954 6.50368 7.14027 6.50368C9.831 6.50368 12.0098 8.68252 12.0098 11.3732C12.0164 14.0574 9.831 16.2428 7.14027 16.2428ZM16.0065 10.7038C15.1337 10.7038 14.4249 9.99507 14.4249 9.12222C14.4249 8.24937 15.1337 7.5406 16.0065 7.5406C16.8794 7.5406 17.5882 8.24937 17.5882 9.12222C17.5882 9.99507 16.8794 10.7038 16.0065 10.7038ZM24.8728 16.2428C22.1821 16.2428 20.0033 14.064 20.0033 11.3732C20.0033 8.68252 22.1821 6.50368 24.8728 6.50368C27.5635 6.50368 29.7424 8.68252 29.7424 11.3732C29.7424 14.0574 27.5635 16.2428 24.8728 16.2428Z" fill="#283138"/>
<path d="M7.13963 8.32812C5.45956 8.32812 4.10107 9.69318 4.10107 11.3667C4.10107 11.767 4.42921 12.0951 4.82954 12.0951C5.22987 12.0951 5.558 11.767 5.558 11.3667C5.558 10.4938 6.27334 9.77849 7.14619 9.77849C7.54652 9.77849 7.87465 9.45036 7.87465 9.05003C7.86809 8.6497 7.53995 8.32812 7.13963 8.32812Z" fill="white"/>
</svg>
