<svg width="32" height="19" viewBox="0 0 32 19" fill="none" xmlns="http://www.w3.org/2000/svg">
<path d="M29.8277 6.23461C29.6505 6.06398 29.4602 5.89991 29.2633 5.7424L26.5726 3.45857C25.5357 2.72354 24.3019 2.25759 22.9631 2.16571L23.1074 2.31009L21.4733 0.6694H21.4602C21.0074 0.255947 20.397 0 19.7342 0C18.5923 0 17.6275 0.741591 17.2994 1.77194C16.9713 1.56193 16.5906 1.43724 16.1772 1.41099C16.1115 1.40443 16.0394 1.40443 15.9737 1.40443C15.5078 1.40443 15.0746 1.54225 14.7071 1.77194C14.3724 0.748153 13.4077 0.00656265 12.2723 0.00656265C11.6095 0.00656265 11.0057 0.255947 10.5463 0.675963H10.5332L8.89909 2.31665L9.04347 2.17227C7.70467 2.26415 6.46431 2.73667 5.43396 3.46513L2.74323 5.74897C2.54635 5.89991 2.35603 6.06398 2.17883 6.24117C0.833469 7.5406 0 9.35848 0 11.3732C0 15.3109 3.20262 18.5135 7.14027 18.5135C10.776 18.5135 13.7883 15.7768 14.2215 12.2527C14.7465 12.5545 15.3568 12.7252 16 12.7252C16.6497 12.7252 17.2535 12.5545 17.7785 12.2527C18.2182 15.7703 21.2239 18.507 24.8597 18.507C28.7973 18.507 32 15.3043 32 11.3667C32.0065 9.35192 31.1731 7.53404 29.8277 6.23461ZM7.14027 16.2428C4.44954 16.2428 2.27071 14.064 2.27071 11.3732C2.27071 8.68252 4.44954 6.50368 7.14027 6.50368C9.831 6.50368 12.0098 8.68252 12.0098 11.3732C12.0164 14.0574 9.831 16.2428 7.14027 16.2428ZM16.0065 10.7038C15.1337 10.7038 14.4249 9.99507 14.4249 9.12222C14.4249 8.24938 15.1337 7.5406 16.0065 7.5406C16.8794 7.5406 17.5882 8.24938 17.5882 9.12222C17.5882 9.99507 16.8794 10.7038 16.0065 10.7038ZM24.8728 16.2428C22.1821 16.2428 20.0033 14.064 20.0033 11.3732C20.0033 8.68252 22.1821 6.50368 24.8728 6.50368C27.5635 6.50368 29.7424 8.68252 29.7424 11.3732C29.7424 14.0574 27.5635 16.2428 24.8728 16.2428Z" fill="#93989B"/>
</svg>
