<svg width="40" height="40" viewBox="0 0 40 40" fill="none" xmlns="http://www.w3.org/2000/svg">
<g clip-path="url(#clip0_21742_66835)">
<path fill-rule="evenodd" clip-rule="evenodd" d="M12.6373 27.9948H7.729V35.1198H12.6373V27.9948ZM9.82902 28.9453C9.36878 28.9453 8.99569 29.3184 8.99569 29.7786V31.4453C8.99569 31.9055 9.36878 32.2786 9.82902 32.2786C10.2893 32.2786 10.6624 31.9055 10.6624 31.4453V29.7786C10.6624 29.3184 10.2893 28.9453 9.82902 28.9453Z" fill="#76BDFF"/>
<path fill-rule="evenodd" clip-rule="evenodd" d="M22.4539 22.9297H17.3872V35.1214H22.4539V22.9297ZM19.4872 23.8802C19.027 23.8802 18.6539 24.2533 18.6539 24.7135V26.3802C18.6539 26.8404 19.027 27.2135 19.4872 27.2135C19.9475 27.2135 20.3206 26.8404 20.3206 26.3802V24.7135C20.3206 24.2533 19.9475 23.8802 19.4872 23.8802Z" fill="#76BDFF"/>
<path fill-rule="evenodd" clip-rule="evenodd" d="M32.2708 13.9844H27.2041V35.1219H32.2708V13.9844ZM29.3041 14.9349C28.8439 14.9349 28.4708 15.308 28.4708 15.7682V17.4349C28.4708 17.8951 28.8439 18.2682 29.3041 18.2682C29.7644 18.2682 30.1375 17.8951 30.1375 17.4349V15.7682C30.1375 15.308 29.7644 14.9349 29.3041 14.9349Z" fill="#76BDFF"/>
<path fill-rule="evenodd" clip-rule="evenodd" d="M28.1414 4.32818C28.0112 4.45833 27.9784 4.55016 27.9784 4.78362C27.9784 5.01701 28.0112 5.10884 28.1414 5.23899L28.3045 5.40207H29.5792H30.8539L27.8239 8.43249L24.794 11.4629L23.6184 10.2909C22.4205 9.09662 22.2265 8.95428 21.891 9.02339C21.6864 9.06559 10.5585 20.1042 10.3783 20.4437C10.1398 20.8929 10.4316 21.39 10.9338 21.39H11.217L16.628 15.9793L22.039 10.5686L23.2649 11.7891L24.491 13.0095H24.7953H25.0997L28.4254 9.68586L31.7512 6.36228V7.43151C31.7512 8.56161 31.7972 8.7866 32.0569 8.92562C32.2401 9.02363 32.633 8.99869 32.7799 8.8797C33.0392 8.6696 33.05 8.57784 33.05 6.57722C33.05 3.90646 33.3296 4.16826 30.4762 4.16644L28.3045 4.16509L28.1414 4.32818ZM27.8436 13.2792C27.2898 13.4323 26.8031 13.9447 26.684 14.5001C26.6384 14.7127 26.6177 17.8973 26.6177 24.702V34.5948H24.9181H23.2185L23.2018 28.9122L23.1851 23.2295L22.9547 22.8973C22.4698 22.1981 22.1283 22.1044 20.0576 22.1026C18.1144 22.1009 17.7553 22.1773 17.2667 22.6973C16.8236 23.1687 16.8485 22.7951 16.8469 29.0129L16.8456 34.5948H15.1447H13.4439V31.668C13.4439 28.3868 13.4444 28.3913 13.0087 27.8962C12.5327 27.3555 12.3957 27.3275 10.2278 27.3275H8.34131L7.98854 27.5007C7.063 27.9553 7.04614 28.027 7.02429 31.6106L7.006 34.5948H6.20262C5.14044 34.5948 4.82955 34.8149 5.03072 35.4247C5.17749 35.8694 3.79556 35.8318 19.9999 35.8318C36.2042 35.8318 34.8222 35.8694 34.969 35.4247C35.1684 34.8206 34.8571 34.5948 33.8253 34.5948H33.05V24.6484C33.05 13.4938 33.0834 14.2968 32.5974 13.7671C32.1166 13.243 32.0448 13.2279 29.9575 13.2126C28.6196 13.2028 28.0558 13.2206 27.8436 13.2792ZM31.5882 14.6221L31.7512 14.7502V24.6725V34.5948H29.8339H27.9165V24.6961V14.7975L28.0684 14.6457L28.2201 14.4939H29.8227C31.3503 14.4939 31.4329 14.4998 31.5882 14.6221ZM8.44343 22.4431C8.20839 22.6409 8.15163 22.8871 8.27378 23.1795C8.45278 23.608 9.02768 23.6874 9.33216 23.3256C9.826 22.7387 9.03061 21.949 8.44343 22.4431ZM21.656 23.4665C21.9833 23.5806 21.979 23.5034 21.979 29.254V34.5948H20.0617H18.1444V29.1307C18.1444 23.1965 18.1243 23.565 18.4537 23.444C18.6315 23.3786 21.461 23.3985 21.656 23.4665ZM12.0269 28.7724C12.1393 28.9113 12.145 29.055 12.145 31.7566V34.5948H10.2278H8.31043L8.31479 31.7961C8.3193 28.8484 8.32183 28.817 8.561 28.6821C8.8627 28.5118 11.8797 28.5904 12.0269 28.7724Z" fill="#283138"/>
</g>
<defs>
<clipPath id="clip0_21742_66835">
<rect width="31.6667" height="31.6667" fill="white" transform="translate(4.1665 4.16663)"/>
</clipPath>
</defs>
</svg>
