<svg width="40" height="40" viewBox="0 0 40 40" fill="none" xmlns="http://www.w3.org/2000/svg">
<path d="M12.5 37.3333V25.1666L17.5 27H22.8333L27.5 24.6666V37.3333L20.1667 33.6666L12.5 37.3333Z" fill="#93989B"/>
<path d="M33.4375 15C33.4384 12.7294 32.8638 10.4956 31.7676 8.50716C30.6713 6.51872 29.0891 4.84051 27.1685 3.6292C25.248 2.41789 23.0519 1.713 20.7851 1.58033C18.5184 1.44766 16.255 1.89155 14.2063 2.87054C12.1576 3.84954 10.3904 5.33171 9.06961 7.17868C7.74887 9.02565 6.91768 11.1772 6.65366 13.4324C6.38963 15.6876 6.70138 17.9729 7.5598 20.075C8.41822 22.1771 9.79531 24.0274 11.5625 25.4531V37.5C11.5633 37.6588 11.6037 37.8148 11.6801 37.954C11.7565 38.0931 11.8665 38.211 12 38.2969C12.1376 38.3808 12.294 38.429 12.455 38.4372C12.616 38.4454 12.7764 38.4132 12.9219 38.3438L20 34.7969L27.0781 38.3438C27.2106 38.4044 27.3543 38.4364 27.5 38.4375C27.6764 38.437 27.8492 38.3884 28 38.2969C28.1335 38.211 28.2435 38.0931 28.3199 37.954C28.3963 37.8148 28.4367 37.6588 28.4375 37.5V25.4531C29.9988 24.1949 31.2584 22.6028 32.1237 20.7939C32.9889 18.985 33.4379 17.0052 33.4375 15ZM8.4375 15C8.4375 12.7132 9.11563 10.4777 10.3861 8.57622C11.6566 6.67478 13.4625 5.19278 15.5752 4.31764C17.688 3.44251 20.0128 3.21353 22.2557 3.65967C24.4986 4.10581 26.5589 5.20703 28.1759 6.82408C29.793 8.44112 30.8942 10.5014 31.3403 12.7443C31.7865 14.9872 31.5575 17.312 30.6824 19.4248C29.8072 21.5375 28.3252 23.3434 26.4238 24.6139C24.5223 25.8844 22.2868 26.5625 20 26.5625C16.9347 26.5584 13.9961 25.3389 11.8286 23.1714C9.66115 21.0039 8.44164 18.0653 8.4375 15ZM26.5625 35.9844L20.4219 32.9063C20.2897 32.8448 20.1457 32.8129 20 32.8129C19.8543 32.8129 19.7103 32.8448 19.5781 32.9063L13.4375 35.9844V26.7188C15.4413 27.8453 17.7013 28.4371 20 28.4371C22.2987 28.4371 24.5588 27.8453 26.5625 26.7188V35.9844ZM20 23.4375C21.6688 23.4375 23.3001 22.9427 24.6876 22.0155C26.0752 21.0884 27.1566 19.7706 27.7952 18.2289C28.4339 16.6871 28.6009 14.9906 28.2754 13.3539C27.9498 11.7172 27.1462 10.2138 25.9662 9.03379C24.7862 7.85378 23.2828 7.05019 21.6461 6.72462C20.0094 6.39906 18.3129 6.56615 16.7711 7.20477C15.2294 7.84338 13.9116 8.92484 12.9845 10.3124C12.0574 11.6999 11.5625 13.3312 11.5625 15C11.5625 17.2378 12.4515 19.3839 14.0338 20.9662C15.6161 22.5486 17.7622 23.4375 20 23.4375ZM20 8.4375C21.2979 8.4375 22.5667 8.82238 23.6459 9.54348C24.7251 10.2646 25.5663 11.2895 26.063 12.4886C26.5597 13.6878 26.6896 15.0073 26.4364 16.2803C26.1832 17.5533 25.5582 18.7226 24.6404 19.6404C23.7226 20.5582 22.5533 21.1832 21.2803 21.4364C20.0073 21.6896 18.6878 21.5597 17.4886 21.063C16.2895 20.5663 15.2646 19.7251 14.5435 18.6459C13.8224 17.5667 13.4375 16.2979 13.4375 15C13.4375 13.2595 14.1289 11.5903 15.3596 10.3596C16.5903 9.1289 18.2595 8.4375 20 8.4375Z" fill="#93989B"/>
<circle cx="19.9998" cy="15" r="13.3333" fill="#93989B"/>
<path d="M33.3332 15C33.3332 22.3638 27.3636 28.3333 19.9998 28.3333C12.636 28.3333 6.6665 22.3638 6.6665 15C6.6665 7.63616 12.636 1.66663 19.9998 1.66663C27.3636 1.66663 33.3332 7.63616 33.3332 15Z" fill="#93989B"/>
<path d="M20 20.1291L15.7801 22.2582C15.2899 22.5056 14.7169 22.106 14.8106 21.5822L15.6165 17.0725L12.2025 13.8788C11.8059 13.5078 12.0248 12.8614 12.5728 12.785L17.2909 12.1271L19.4008 8.0241C19.646 7.54747 20.354 7.54747 20.5992 8.0241L22.7091 12.1271L27.4272 12.785C27.9752 12.8614 28.1941 13.5078 27.7975 13.8788L24.3835 17.0725L25.1894 21.5822C25.2831 22.106 24.7102 22.5055 24.2199 22.2582L20 20.1291Z" fill="white"/>
</svg>
